<svg fill = "#391919" id="Calque_1" data-name="Calque 1" xmlns="http://www.w3.org/2000/svg" viewBox="0 0 200.46 268.31"><title>logo-es</title><path d="M123.37,175.63c-2.48-2.18-4.62-3.89-6.58-5.79-11.34-11-13.67-24.21-8.57-38.56,9.15-25.78,27.34-41.65,54.47-46.17,6.73-1.12,14-.52,20.82.69,11.58,2.07,17.68,11.64,16.88,24.63-.85,13.77-6.07,26.17-12.12,38.3a63.92,63.92,0,0,1-4.88,8.41,4.07,4.07,0,0,1-3.48,1.3c-5.38-1.42-8.63-6.12-7.48-12.13,1.25-6.57,3.49-12.95,5.4-19.39,2.32-7.87,5.31-15.6,7-23.61,1.32-6.34-1.26-9-7.7-9.79a42,42,0,0,0-28.81,7.21,58.65,58.65,0,0,0-22.8,28.05c-4.61,11.94-2.35,21.61,7.74,29.36,5.9,4.54,12.58,8.07,19,11.91,7.82,4.68,16,8.86,23.56,13.87,27.82,18.34,26,53.81.62,70.88C154.23,269.73,130,272.53,105.05,262c-13.12-5.55-21.43-15.64-23.35-30.26a22.81,22.81,0,0,0-.59-2.4c-9,4-18.26,6.57-28,6.67-12.67.13-24.6-2.51-35-10.11A43.28,43.28,0,0,1,2.9,175.11C12.41,150,31.21,135.67,57,129.76c1.2-.27,2.4-.51,4.07-.86-1.94-2.15-3.64-3.92-5.21-5.79C37.29,101.09,41.65,69,65.21,52.3c11.28-8,23.76-10.79,37.27-9.45,14.48,1.44,23.11,10.43,23.92,25,.75,13.45-3.17,25.47-12.58,35.29-4.72,4.94-9.81,5.2-13.86,1.16A69.16,69.16,0,0,1,94.83,98c5.16-5.74,10.48-10.74,14.61-16.57a38.71,38.71,0,0,0,5.88-13.94c1.75-8.16-3.21-14.93-11.45-16.46C92.36,48.86,83,52.75,75.79,61.9c-14.58,18.53-13.56,50.73,2.13,67,1.43,1.5,3,2.86,4.35,4.15-6.67,2.4-13.52,4.1-19.63,7.23-18.71,9.59-31.93,23.92-35.58,45.35-2.58,15.11,3.78,29.51,15.76,36.12,9.27,5.12,19,4,28.78,1.29,1.44-.39,2.83-1,4.24-1.47,3.77-1.31,6.35-3.2,7.61-7.62,2.94-10.22,11.38-14.9,20.86-17.37,4.72-1.23,8.12-3.27,10.55-7.39C117.59,184.59,120.54,180.13,123.37,175.63Zm6.5,3.42c-7.1,12.67-15.06,23.64-24.84,33.24a5.92,5.92,0,0,0-1.14,1.91c-6.63,15.25,1.1,33.6,16.86,39,14.92,5.11,29.63,3.67,43.46-3.76,12.11-6.49,17.44-18.12,14.5-30.34-2-8.06-7.07-14.2-13.73-18.57C153.65,193.07,141.85,186.33,129.87,179.05Z"/><path d="M108.92,33.9c-3.44-2-4.75-5.6-2-10.93A60.33,60.33,0,0,1,122.34,3.44,17.07,17.07,0,0,1,128.59.26a6,6,0,0,1,7.24,3.25c1.47,2.79,1.51,5.17-1.27,7.57C126,18.41,117.75,26,108.92,33.9Z"/></svg>