<svg fill = "#391919" xmlns="http://www.w3.org/2000/svg" viewBox="0 0 26.32 26.32"><title>user-4</title><g id="user"><g id="user-2-2" data-name="user"><path d="M13.16,0A13.16,13.16,0,1,0,26.32,13.15,13.18,13.18,0,0,0,13.16,0Zm0,25.21A12.05,12.05,0,1,1,25.21,13.15,12.07,12.07,0,0,1,13.16,25.21Z"/><path d="M13.16,6a3.5,3.5,0,1,1-3.5,3.5A3.5,3.5,0,0,1,13.16,6m0-1a4.5,4.5,0,1,0,4.5,4.5A4.51,4.51,0,0,0,13.16,5Z"/><path d="M21.25,18.83h0A6,6,0,0,0,15.67,15h-5a6,6,0,0,0-5.58,3.8h0a1.83,1.83,0,0,0,.39,2l.2.19a10.7,10.7,0,0,0,2.95,2,10.81,10.81,0,0,0,12.05-2l.12-.12A1.93,1.93,0,0,0,21.25,18.83ZM15.6,16A5.73,5.73,0,0,1,13.28,19s-2.22-1-2.56-2.92Zm.07,2v.86A1.12,1.12,0,0,1,14.54,20H13.45A8,8,0,0,0,15.67,18Zm-6,3.9v.45a9.91,9.91,0,0,1-3.41-2.18,1,1,0,0,1-.2-1.11,5,5,0,0,1,3.66-3,5.11,5.11,0,0,0,2.55,3.4,5.36,5.36,0,0,1-1,.37A1.87,1.87,0,0,0,9.67,21.94Zm10.4-1.73a9.87,9.87,0,0,1-9.4,2.5V21.64a.61.61,0,0,1,.61-.61h3.26a2.13,2.13,0,0,0,2.13-2.13V16.14a5,5,0,0,1,2,.89,5.07,5.07,0,0,1,1.6,2.07A1,1,0,0,1,20.07,20.21Z" /><circle cx="11.66" cy="22.03" r="0.61"/></g></g></svg>